<svg id="Group_3047" data-name="Group 3047" xmlns="http://www.w3.org/2000/svg" xmlns:xlink="http://www.w3.org/1999/xlink" width="31" height="27" viewBox="0 0 31 27">
  <defs>
    <clipPath id="clip-path">
      <rect id="Rectangle_2170" data-name="Rectangle 2170" width="31" height="27" fill="#5a80fb"/>
    </clipPath>
  </defs>
  <g id="Group_3046" data-name="Group 3046" clip-path="url(#clip-path)">
    <path id="Path_5072" data-name="Path 5072" d="M29.8,20.4c-1.1-1.9-5.8-3.2-9.9-3.4a6.885,6.885,0,0,1-1.1-1.3c-3.6-4.1-5-10-5.5-13.1A11.548,11.548,0,0,1,13.1,1a.892.892,0,0,0-.9-1,.864.864,0,0,0-.6.3c-.3.3-.2.6-.2,1,.1.4.1,1,.2,1.6.3,3.2.4,9.2-2,14.1-.3.5-.5,1-.8,1.4C4.3,19.6.6,22,.1,24a1.9,1.9,0,0,0,.5,1.9,2.878,2.878,0,0,0,2.1.9c2.2,0,4.6-2.4,7.3-7.2,1.2-.3,2.4-.5,3.6-.7a8.752,8.752,0,0,0,1.6-.2,17.883,17.883,0,0,1,4.1-.2c3.3,3.5,6,5.2,8.1,5.2a2.648,2.648,0,0,0,2.5-1.5,1.688,1.688,0,0,0-.1-1.8ZM2.6,25.2a1.222,1.222,0,0,1-.9-.4c-.1-.1-.1-.2-.1-.4.3-1,2.6-2.8,6.1-4-2,3.1-3.8,4.8-5.1,4.8Zm12.3-8a7.719,7.719,0,0,1-1.5.2,20.024,20.024,0,0,0-2.4.4c0-.1.1-.1.1-.2a23.566,23.566,0,0,0,2.2-8.4,22.24,22.24,0,0,0,4.3,7.6l.2.2a24.771,24.771,0,0,0-2.9.2Zm13.5,4.3a1.213,1.213,0,0,1-1.2.7c-1.3,0-3.2-1.2-5.6-3.4,3.6.5,6.3,1.6,6.8,2.4a.187.187,0,0,1,0,.3Zm0,0" fill="#5a80fb"/>
  </g>
</svg>
