<svg id="amazon-echo" xmlns="http://www.w3.org/2000/svg" width="140.35" height="42.295" viewBox="0 0 140.35 42.295">
  <path id="Path_5124" data-name="Path 5124" d="M832.281,1479.593c-8.154,6.019-19.978,9.217-30.156,9.217a54.589,54.589,0,0,1-36.839-14.052c-.761-.689-.083-1.631.834-1.1a74.14,74.14,0,0,0,36.86,9.78,73.349,73.349,0,0,0,28.114-5.754c1.381-.586,2.537.906,1.187,1.905" transform="translate(-745.212 -1446.515)" fill="#bccbfd" fill-rule="evenodd"/>
  <path id="Path_5125" data-name="Path 5125" d="M90.463,457.1c-1.045-1.334-6.894-.632-9.522-.317-.795.1-.919-.6-.2-1.1,4.667-3.278,12.315-2.331,13.205-1.234s-.235,8.776-4.61,12.436c-.674.563-1.311.263-1.014-.48.981-2.46,3.188-7.963,2.142-9.3M81.124,432.52v-3.183a.787.787,0,0,1,.808-.808l14.279,0a.8.8,0,0,1,.823.8v2.733a4.515,4.515,0,0,1-1.076,2.006l-7.4,10.56a15.866,15.866,0,0,1,8.144,1.747,1.46,1.46,0,0,1,.759,1.244v3.4c0,.467-.514,1.012-1.053.728a16.442,16.442,0,0,0-15.085.028c-.5.263-1.017-.271-1.017-.738v-3.232a3.843,3.843,0,0,1,.532-2.189l8.57-12.292H81.95a.8.8,0,0,1-.826-.805m-52.083,19.9H24.7a.82.82,0,0,1-.777-.733l.005-22.294a.819.819,0,0,1,.839-.8l4.047,0a.813.813,0,0,1,.787.749v2.909h.083a5.73,5.73,0,0,1,5.717-4.127c2.718,0,4.422,1.314,5.635,4.127a6.417,6.417,0,0,1,11.029-1.688c1.381,1.879,1.1,4.6,1.1,6.99l-.005,14.07a.818.818,0,0,1-.839.8H47.979a.814.814,0,0,1-.777-.8l0-11.822a28.363,28.363,0,0,0-.121-4.174,2.262,2.262,0,0,0-2.553-1.923,2.879,2.879,0,0,0-2.594,1.827,13.475,13.475,0,0,0-.405,4.269v11.819a.818.818,0,0,1-.839.8H36.351a.814.814,0,0,1-.78-.8l-.005-11.822c0-2.486.4-6.143-2.677-6.143-3.123,0-3,3.565-3,6.143l0,11.819a.831.831,0,0,1-.847.808m80.327-19.751c-3.2,0-3.407,4.362-3.407,7.083s-.041,8.539,3.366,8.539c3.366,0,3.528-4.693,3.528-7.553a20.621,20.621,0,0,0-.65-5.911,2.72,2.72,0,0,0-2.837-2.158m-.041-4.551c6.448,0,9.935,5.537,9.935,12.573,0,6.8-3.851,12.2-9.935,12.2-6.324,0-9.772-5.537-9.772-12.431,0-6.943,3.487-12.338,9.772-12.338m18.3,24.3h-4.329a.816.816,0,0,1-.78-.8l-.005-22.3a.819.819,0,0,1,.834-.728l4.029,0a.827.827,0,0,1,.772.625v3.41h.083c1.216-3.051,2.919-4.5,5.919-4.5a5.7,5.7,0,0,1,5.069,2.628c1.136,1.781,1.136,4.783,1.136,6.943v14.026a.825.825,0,0,1-.834.7h-4.354a.815.815,0,0,1-.772-.7v-12.1c0-2.439.284-6-2.718-6a2.838,2.838,0,0,0-2.514,1.781,9.935,9.935,0,0,0-.689,4.223v12.005a.834.834,0,0,1-.847.8m-53.5-.057a.9.9,0,0,1-1.027.1,10.61,10.61,0,0,1-2.491-2.894c-2.382,2.429-4.071,3.157-7.16,3.157-3.658,0-6.5-2.256-6.5-6.771a7.379,7.379,0,0,1,4.633-7.1c2.357-1.035,5.65-1.223,8.169-1.5v-.565a5.54,5.54,0,0,0-.529-3.149,2.9,2.9,0,0,0-2.439-1.131,3.312,3.312,0,0,0-3.492,2.61.919.919,0,0,1-.754.8l-4.21-.457a.764.764,0,0,1-.648-.909c.968-5.108,5.581-6.652,9.713-6.652,2.114,0,4.876.563,6.543,2.163,2.114,1.975,1.91,4.607,1.91,7.475v6.768a5.929,5.929,0,0,0,1.639,4.024.817.817,0,0,1-.013,1.154c-.888.743-2.462,2.111-3.33,2.883Zm-4.378-10.591a8.511,8.511,0,0,1-.813,4.607,3.528,3.528,0,0,1-3.007,1.975c-1.665,0-2.641-1.27-2.641-3.152,0-3.7,3.319-4.37,6.461-4.37ZM17.18,452.362a.9.9,0,0,1-1.027.1,10.61,10.61,0,0,1-2.491-2.894c-2.385,2.429-4.073,3.157-7.16,3.157-3.66,0-6.5-2.256-6.5-6.771a7.376,7.376,0,0,1,4.633-7.1c2.357-1.035,5.648-1.223,8.167-1.5v-.565a5.54,5.54,0,0,0-.529-3.149,2.9,2.9,0,0,0-2.437-1.131,3.308,3.308,0,0,0-3.492,2.61.919.919,0,0,1-.754.8l-4.21-.457a.768.768,0,0,1-.65-.909c.968-5.108,5.581-6.649,9.716-6.649,2.114,0,4.876.563,6.543,2.163,2.114,1.975,1.91,4.607,1.91,7.475v6.768a5.929,5.929,0,0,0,1.639,4.024.817.817,0,0,1-.013,1.154c-.888.743-2.465,2.111-3.332,2.883ZM12.8,441.771a8.511,8.511,0,0,1-.813,4.607,3.522,3.522,0,0,1-3.007,1.975c-1.665,0-2.641-1.27-2.641-3.152,0-3.7,3.319-4.37,6.461-4.37Z" transform="translate(0 -427.9)" fill="#bccbfd" fill-rule="evenodd"/>
</svg>
