<svg xmlns="http://www.w3.org/2000/svg" width="137.265" height="55" viewBox="0 0 137.265 55">
  <g id="Group_3259" data-name="Group 3259" transform="translate(0)">
    <path id="Path_5120" data-name="Path 5120" d="M17.85,26.309C8.168,26.309.1,30.416.1,42.808c0,9.817,5.425,16,18,16,14.8,0,15.749-9.75,15.749-9.75H26.677s-1.537,5.25-9.015,5.25c-6.09,0-10.471-4.114-10.471-9.881H34.6V40.808c0-5.7-3.622-14.5-16.749-14.5Zm-.25,4.625c5.8,0,9.75,3.552,9.75,8.875h-20C7.35,34.157,12.509,30.934,17.6,30.934Z" transform="translate(-0.1 -14.309)" fill="#bccbfd"/>
    <path id="Path_5121" data-name="Path 5121" d="M75.254.1V38.375c0,2.173-.155,5.223-.155,5.223h6.84s.246-2.191.246-4.194c0,0,3.379,5.287,12.569,5.287,9.676,0,16.249-6.719,16.249-16.343,0-8.954-6.037-16.156-16.234-16.156-9.548,0-12.515,5.156-12.515,5.156V.1ZM93,16.928c6.571,0,10.75,4.877,10.75,11.422,0,7.018-4.826,11.609-10.7,11.609-7.013,0-10.8-5.476-10.8-11.547,0-5.656,3.395-11.484,10.75-11.484Z" transform="translate(-40.76 -0.1)" fill="#bccbfd"/>
    <path id="Path_5122" data-name="Path 5122" d="M169.628,26.309c-14.565,0-15.5,7.975-15.5,9.25h7.25s.38-4.656,7.75-4.656c4.789,0,8.5,2.192,8.5,6.406v1.5h-8.5c-11.284,0-17.249,3.3-17.249,10,0,6.592,5.512,10.179,12.961,10.179,10.152,0,13.422-5.609,13.422-5.609,0,2.231.172,4.43.172,4.43h6.445s-.25-2.725-.25-4.469V38.27C184.628,28.388,176.658,26.309,169.628,26.309Zm8,17v2c0,2.608-1.61,9.093-11.086,9.093-5.189,0-7.414-2.59-7.414-5.594,0-5.465,7.492-5.5,18.5-5.5Z" transform="translate(-82.386 -14.309)" fill="#bccbfd"/>
    <path id="Path_5123" data-name="Path 5123" d="M214.879,29.041h8.156l11.705,23.45,11.678-23.45h7.388L232.535,70.79h-7.75l6.138-11.638Z" transform="translate(-116.541 -15.79)" fill="#bccbfd"/>
  </g>
</svg>
