<svg id="Group_3243" data-name="Group 3243" xmlns="http://www.w3.org/2000/svg" width="138.852" height="38.697" viewBox="0 0 138.852 38.697">
  <path id="Path_5116" data-name="Path 5116" d="M27.315,4.173A3.42,3.42,0,0,0,25.039,1.9,9.373,9.373,0,0,0,21.625.379,20.042,20.042,0,0,0,16.693,0H7.967a1.736,1.736,0,0,0-1.9,1.518L0,26.936c0,1.138.379,1.9,1.138,1.9H5.311c.759,0,1.9-.759,1.9-1.518l1.518-6.07a2.521,2.521,0,0,1,1.9-1.518h1.138c4.932,0,9.105-1.138,11.761-3.035,3.414-2.656,4.553-5.311,4.553-8.726a6.239,6.239,0,0,0-.759-3.794ZM18.59,12.519a10.966,10.966,0,0,1-5.311,1.518H12.14A1.327,1.327,0,0,1,11,12.14L12.14,6.829c0-.759,1.138-1.518,1.9-1.518h1.518a11.224,11.224,0,0,1,3.794.759,4.336,4.336,0,0,1,1.138,2.656,4.669,4.669,0,0,1-1.9,3.794ZM75.876,9.105,59.183,37.179A3.84,3.84,0,0,1,56.527,38.7H52.354c-.759,0-1.138-.759-.759-1.518l3.794-6.449s.379-.379,0-2.656C55.01,24.28,51.975,7.967,51.975,7.967c-.379-.379.379-1.138,1.138-1.138h3.794a2.562,2.562,0,0,1,2.276,1.518l1.9,11h.759C62.6,18.21,68.288,7.967,68.288,7.967a3.84,3.84,0,0,1,2.656-1.518h4.932c1.518.379,0,2.656,0,2.656Zm27.315-4.932a5.1,5.1,0,0,0-2.276-2.656A6.409,6.409,0,0,0,97.121.379C95.6.379,94.086,0,92.189,0H83.463c-.759,0-1.9.759-1.9,1.518l-5.691,25.8c-.379.759.379,1.518,1.138,1.518h4.173c.759,0,1.9-.759,1.9-1.518l1.518-6.07a2.521,2.521,0,0,1,1.9-1.518h1.138c4.932,0,9.105-1.138,11.761-3.035,3.035-2.656,4.553-5.311,4.553-8.726a11.224,11.224,0,0,0-.759-3.794Zm-9.105,8.346a9.819,9.819,0,0,1-5.311,1.518H87.636c-.759,0-1.518-.759-1.138-1.518l1.138-5.311a2.521,2.521,0,0,1,1.9-1.518h1.518a11.224,11.224,0,0,1,3.794.759,2.954,2.954,0,0,1,1.138,2.656,4.527,4.527,0,0,1-1.9,3.414ZM47.422,7.967c-1.518-.759-4.173-1.138-7.588-1.138a21.632,21.632,0,0,0-4.932.379c-1.138,0-1.518.379-2.276.379a1.486,1.486,0,0,0-1.518,1.518l-.379,2.276c-.379,1.138.379,1.138.759,1.138a11.762,11.762,0,0,1,2.656-.759,11.7,11.7,0,0,1,3.414-.379,10.572,10.572,0,0,1,3.794.379,2.086,2.086,0,0,1,1.138,1.9v.759l-.759.379a28.714,28.714,0,0,0-5.691.379,21.747,21.747,0,0,0-5.311,1.518,9.634,9.634,0,0,0-3.794,3.035A7.648,7.648,0,0,0,25.8,23.9a5.8,5.8,0,0,0,1.518,3.794,7.291,7.291,0,0,0,4.553,1.518,5.625,5.625,0,0,0,2.656-.379l1.9-.759,1.518-1.138,1.9-.379h0v.759h0c0,.759.379,1.518,1.138,1.518h3.794a2.521,2.521,0,0,0,1.9-1.518L49.7,14.037V11.761c.379-1.518-.759-3.035-2.276-3.794Zm-6.449,14.8-.759.759L38.7,24.28a5.639,5.639,0,0,1-2.276.379c-1.138,0-1.9,0-2.276-.379l-1.138-1.518a2.9,2.9,0,0,1,.759-1.9l1.9-1.138a5.483,5.483,0,0,1,2.656-.759c1.138,0,2.656-.379,3.035-.379l.379.379a32.862,32.862,0,0,0-.759,3.794ZM123.3,7.967c-1.518-.759-4.173-1.138-7.588-1.138a21.632,21.632,0,0,0-4.932.379c-1.138,0-1.518.379-2.276.379a2.759,2.759,0,0,0-1.9,1.9l-.379,1.9c-.379,1.518.379,1.138.759,1.138a15.817,15.817,0,0,1,2.276-.759,17.013,17.013,0,0,1,4.173-.379c1.518,0,3.035.379,3.794.379a2.086,2.086,0,0,1,1.138,1.9v.759l-.759.379a29.485,29.485,0,0,0-6.07.759,21.747,21.747,0,0,0-5.311,1.518,8.261,8.261,0,0,0-3.414,2.656,7.648,7.648,0,0,0-1.138,4.173,4.669,4.669,0,0,0,1.9,3.794,6.047,6.047,0,0,0,4.553,1.518,5.625,5.625,0,0,0,2.656-.379l1.9-.759,1.9-1.138,1.138-.379h0v.759h0c-.379.759.379,1.518,1.138,1.518h3.794a2.521,2.521,0,0,0,1.9-1.518l2.656-13.278V11.761a3.325,3.325,0,0,0-1.9-3.794Zm-6.829,14.8-.759.759-1.518.759a4.812,4.812,0,0,1-2.276.379c-1.138,0-1.9,0-2.276-.379l-.759-1.518a2.9,2.9,0,0,1,.759-1.9,8.293,8.293,0,0,1,1.9-1.138,4.067,4.067,0,0,1,2.276-.759c1.138,0,2.656-.379,3.035-.379l.379.379a21.836,21.836,0,0,1-.759,3.794ZM138.852,1.9l-5.691,25.418-.379.379a2.086,2.086,0,0,1-1.9,1.138h-3.794c-.759,0-1.138-.759-1.138-1.518h0v-.759l5.311-23.9V1.9l.379-.379a2.086,2.086,0,0,1,1.9-1.138h3.794A1.39,1.39,0,0,1,138.852,1.9Z" fill="#bccbfd"/>
</svg>
