<svg xmlns="http://www.w3.org/2000/svg" width="461.122" height="283.404" viewBox="0 0 461.122 283.404">
  <g id="Device_placeholder" data-name="Device placeholder" transform="translate(1 1)">
    <rect id="Rectangle_936" data-name="Rectangle 936" width="363.082" height="228.429" transform="translate(48.02 18.539)" fill="#edf1fe" stroke="#5a80fb" stroke-miterlimit="10" stroke-width="2"/>
    <path id="Path_2568" data-name="Path 2568" d="M135.067,266.859c-7.546,0-6.163-9.986-6.163-17.558V14.609A13.725,13.725,0,0,1,142.613.9H509.845a13.725,13.725,0,0,1,13.709,13.709V249.3c0,7.546,1.409,17.558-6.163,17.558H135.067Z" transform="translate(-96.655 -0.9)" fill="none" stroke="#5a80fb" stroke-miterlimit="10" stroke-width="2"/>
    <path id="Path_2569" data-name="Path 2569" d="M525.11,269.048H145.728a4.632,4.632,0,0,1-4.628-4.628V23.691A10.682,10.682,0,0,1,151.791,13H519.023a10.682,10.682,0,0,1,10.691,10.691V264.445A4.574,4.574,0,0,1,525.11,269.048Z" transform="translate(-105.858 -9.956)" fill="none" stroke="#5a80fb" stroke-miterlimit="10" stroke-width="2"/>
    <ellipse id="Ellipse_48" data-name="Ellipse 48" cx="2.012" cy="2.012" rx="2.012" ry="2.012" transform="translate(227.549 8.854)" fill="none" stroke="#5a80fb" stroke-miterlimit="10" stroke-width="2"/>
    <g id="Group_1265" data-name="Group 1265" transform="translate(0 265.959)">
      <rect id="Rectangle_937" data-name="Rectangle 937" width="459.122" height="8.88" fill="none" stroke="#5a80fb" stroke-miterlimit="10" stroke-width="2"/>
      <path id="Path_2570" data-name="Path 2570" d="M245.126,1100.14H45.2c-37.581,0-44.2-6.54-44.2-6.54m215,6.54H415.925c37.581,0,44.222-6.54,44.222-6.54" transform="translate(-1 -1084.695)" fill="none" stroke="#5a80fb" stroke-miterlimit="10" stroke-width="2"/>
      <path id="Path_2571" data-name="Path 2571" d="M805.748,1062.652h-27.7c-6.993,0-8.553-4.452-8.553-4.452m36.248,4.452h27.7c6.993,0,8.553-4.452,8.553-4.452" transform="translate(-576.187 -1058.2)" fill="none" stroke="#5a80fb" stroke-miterlimit="10" stroke-width="2"/>
    </g>
    <g id="Image_placeholder" data-name="Image placeholder" transform="translate(199.978 117.283)">
      <path id="Path_12" data-name="Path 12" d="M0,952.4v41.566H59.751V952.4H0Zm3.9,3.9H55.854V982.47L45.593,971.234a2.015,2.015,0,0,0-1.559-.649,2.385,2.385,0,0,0-1.3.584L33.9,980.522,20.913,966.039a1.818,1.818,0,0,0-1.559-.65,1.868,1.868,0,0,0-1.3.585L3.9,981.171Zm30.525,1.3a5.845,5.845,0,1,0,5.845,5.845A5.9,5.9,0,0,0,34.422,957.6Zm0,3.9a1.948,1.948,0,1,1-1.948,1.948A1.914,1.914,0,0,1,34.422,961.492Zm-15,8.7L37.15,990.069H3.9v-3.117Zm24.745,5.2,11.69,12.795V990H42.41L36.5,983.38Z" transform="translate(0 -952.4)" fill="#fff"/>
    </g>
  </g>
</svg>
