<svg xmlns="http://www.w3.org/2000/svg" width="114.413" height="39.598" viewBox="0 0 114.413 39.598">
  <path id="Path_5059" data-name="Path 5059" d="M61.615,0,55.285,39.436H65.4L71.73,0ZM92.179,16.066c-3.516-1.731-5.734-2.921-5.734-4.706.054-1.623,1.839-3.3,5.842-3.3a17.112,17.112,0,0,1,7.519,1.461l.92.433,1.352-8.277A26.034,26.034,0,0,0,92.99.054C82.982.054,75.95,5.247,75.9,12.713c-.108,5.464,5.031,8.547,8.872,10.386,3.895,1.893,5.247,3.083,5.247,4.76-.054,2.543-3.192,3.733-6.059,3.733a20.2,20.2,0,0,1-9.521-2.056l-1.352-.6-1.406,8.6A31.242,31.242,0,0,0,82.982,39.6c10.6,0,17.527-5.139,17.635-13.037.108-4.436-2.6-7.79-8.439-10.495ZM128.1.108h-7.844c-2.434,0-4.274.7-5.3,3.192L99.914,39.436h10.6l2.921-7.844h11.9l1.515,7.844h9.359ZM116.414,23.694c.216,0,4.057-12.767,4.057-12.767l3.083,12.767ZM46.792,0l-9.9,26.777-1.082-5.3C33.972,15.363,28.237,8.764,21.8,5.464l9.088,33.918H41.6L57.557,0Zm0,0" transform="translate(-21.8)" fill="#5a80fb" opacity="0.4"/>
</svg>
